<?xml version="1.0" encoding="UTF-8"?>
<!DOCTYPE svg PUBLIC "-//W3C//DTD SVG 1.1//EN" "http://www.w3.org/Graphics/SVG/1.1/DTD/svg11.dtd">
<!-- Creator: CorelDRAW 2020 (64 Bit) -->
<svg xmlns="http://www.w3.org/2000/svg" xml:space="preserve" width="5.9266mm" height="5.9276mm" version="1.1" style="shape-rendering:geometricPrecision; text-rendering:geometricPrecision; image-rendering:optimizeQuality; fill-rule:evenodd; clip-rule:evenodd"
viewBox="0 0 113.61 113.63"
 xmlns:xlink="http://www.w3.org/1999/xlink"
 xmlns:xodm="http://www.corel.com/coreldraw/odm/2003">
 <defs>
  <style type="text/css">
   <![CDATA[
    .fil0 {fill:#1a1a1a}
   ]]>
  </style>
 </defs>
 <g id="Camada_x0020_1">
  <metadata id="CorelCorpID_0Corel-Layer"/>
  <g id="_2091238488416">
   <path class="fil0" d="M113.51 46.37l-14.57 14.76c-1.16,1.17 -0.87,0.65 -0.87,3.37 0,11.22 0.02,22.44 0,33.65l-82.58 0 0 -82.58 35.62 0.01c0.86,0 0.84,-0.27 1.32,-0.74 1.4,-1.38 14.39,-14.28 14.68,-14.74 -7.41,-0.19 -15.07,-0.01 -22.51,-0.01l-33.86 0c-3.16,-0 -6.1,1.07 -8.03,3.33 -2.19,2.56 -2.71,4.25 -2.71,8.54l0 90.43c0,3.9 1.04,6.33 3.05,8.3 2.09,2.04 4.34,2.95 8.3,2.95l90.33 0c4.3,0 6.1,-0.55 8.6,-2.75 1.81,-1.59 3.27,-4.43 3.27,-7.98l0 -50.89c0,-1.37 0.16,-4.47 -0.04,-5.64z"/>
   <path class="fil0" d="M34.17 58.79c0.27,0.27 1.19,0.78 1.58,1.03 2.73,1.69 4.38,3.16 6.66,4.9 1.88,1.43 4.26,4.07 5.91,5.75 1.36,1.39 4.47,5.62 5.57,7.34l1.04 1.53 45.61 -45.61c-0.4,-1.8 -4.81,-8.28 -6.58,-10.12 -1.98,-2.06 -2.36,-2.52 -4.59,-4.49 -0.44,-0.39 -0.92,-0.75 -1.43,-1.15 -0.49,-0.39 -0.96,-0.75 -1.48,-1.1 -1.28,-0.87 -5.19,-3.39 -6.54,-3.77l-45.73 45.69z"/>
   <path class="fil0" d="M85.81 7.2l3.09 2.04c1.07,0.72 2.03,1.39 3,2.16l2.83 2.33c0.3,0.23 0.36,0.34 0.64,0.6 0.25,0.23 0.48,0.4 0.73,0.62 0.47,0.4 0.84,0.88 1.28,1.29 1.74,1.61 3.28,3.45 4.88,5.44l3.22 4.52c0.31,0.49 0.65,1.15 1.04,1.55 0.62,-0.52 1.22,-1.2 1.82,-1.79l4.54 -4.54c0.44,-0.44 0.66,-0.4 0.66,-1.2 -0,-3.58 -1.17,-8.41 -2.53,-11.2 -1.56,-3.2 -3.66,-5.2 -7.04,-6.69 -1.61,-0.71 -3.37,-1.24 -5.21,-1.6 -1.08,-0.21 -5.36,-1.07 -6.07,-0.43l-6.89 6.91z"/>
   <path class="fil0" d="M25.81 87.82c6.42,-0.1 13.61,0.01 20.13,-0 0.77,0 0.72,-0.16 1.61,-1.07 0.49,-0.49 0.88,-0.92 1.36,-1.41 -0.26,-0.86 -1.26,-2.57 -1.75,-3.39 -2.22,-3.69 -3.81,-5.79 -6.76,-8.73 -2.71,-2.7 -5.31,-4.78 -8.72,-6.76 -0.77,-0.44 -2.6,-1.52 -3.39,-1.74 -2.5,2.5 -2.48,1.92 -2.48,3.9l0 19.2z"/>
  </g>
 </g>
</svg>
