<?xml version="1.0" encoding="UTF-8"?>
<!DOCTYPE svg PUBLIC "-//W3C//DTD SVG 1.1//EN" "http://www.w3.org/Graphics/SVG/1.1/DTD/svg11.dtd">
<!-- Creator: CorelDRAW 2020 (64 Bit) -->
<svg xmlns="http://www.w3.org/2000/svg" xml:space="preserve" width="5.335mm" height="5.9266mm" version="1.1" style="shape-rendering:geometricPrecision; text-rendering:geometricPrecision; image-rendering:optimizeQuality; fill-rule:evenodd; clip-rule:evenodd"
viewBox="0 0 54.21 60.22"
 xmlns:xlink="http://www.w3.org/1999/xlink"
 xmlns:xodm="http://www.corel.com/coreldraw/odm/2003">
 <defs>
  <style type="text/css">
   <![CDATA[
    .fil0 {fill:#990000;fill-rule:nonzero}
   ]]>
  </style>
 </defs>
 <g id="Camada_x0020_1">
  <metadata id="CorelCorpID_0Corel-Layer"/>
  <g id="_2091240374080">
   <path class="fil0" d="M3.01 18.07c-1.66,0 -3.01,-1.35 -3.01,-3.01 0,-1.66 1.35,-3.01 3.01,-3.01l48.19 0c1.66,0 3.01,1.35 3.01,3.01 0,1.66 -1.35,3.01 -3.01,3.01l-48.19 0z"/>
   <path class="fil0" d="M18.07 27.11c0,-1.66 1.35,-3.01 3.01,-3.01 1.66,0 3.01,1.35 3.01,3.01l0 18.07c0,1.66 -1.35,3.01 -3.01,3.01 -1.66,0 -3.01,-1.35 -3.01,-3.01l0 -18.07z"/>
   <path class="fil0" d="M30.12 27.11c0,-1.66 1.35,-3.01 3.01,-3.01 1.66,0 3.01,1.35 3.01,3.01l0 18.07c0,1.66 -1.35,3.01 -3.01,3.01 -1.66,0 -3.01,-1.35 -3.01,-3.01l0 -18.07z"/>
   <path class="fil0" d="M3.02 15.31c-0.14,-1.66 1.1,-3.11 2.75,-3.25 1.66,-0.14 3.11,1.1 3.25,2.75l3.01 36.14 0 0.42c0.04,0.75 0.38,1.44 0.89,1.96 0.54,0.54 1.3,0.88 2.13,0.88l24.09 0.01c0.82,0 1.58,-0.34 2.13,-0.9 0.54,-0.54 0.88,-1.3 0.88,-2.13l3.02 -36.39c0.14,-1.66 1.59,-2.89 3.25,-2.75 1.66,0.14 2.89,1.59 2.75,3.25l-3 36.01c-0.03,2.45 -1.04,4.66 -2.65,6.27 -1.63,1.63 -3.89,2.63 -6.39,2.64l-24.09 -0c-2.49,0.01 -4.75,-1 -6.39,-2.63 -1.56,-1.56 -2.55,-3.7 -2.63,-6.08l-3.02 -36.2z"/>
   <path class="fil0" d="M21.08 15.06c0,1.66 -1.35,3.01 -3.01,3.01 -1.66,0 -3.01,-1.35 -3.01,-3.01l0 -9.04c0.01,-1.67 0.68,-3.18 1.77,-4.26 1.09,-1.09 2.6,-1.77 4.26,-1.77l12.05 0c1.66,0 3.17,0.68 4.26,1.77 1.09,1.09 1.76,2.6 1.76,4.26l0 9.04c0,1.66 -1.35,3.01 -3.01,3.01 -1.66,0 -3.01,-1.35 -3.01,-3.01l0 -9.04 -12.05 0 -0 9.04z"/>
  </g>
 </g>
</svg>
