<?xml version="1.0" encoding="UTF-8"?>
<!DOCTYPE svg PUBLIC "-//W3C//DTD SVG 1.1//EN" "http://www.w3.org/Graphics/SVG/1.1/DTD/svg11.dtd">
<!-- Creator: CorelDRAW 2020 (64 Bit) -->
<svg xmlns="http://www.w3.org/2000/svg" xml:space="preserve" width="1598px" height="835px" version="1.1" style="shape-rendering:geometricPrecision; text-rendering:geometricPrecision; image-rendering:optimizeQuality; fill-rule:evenodd; clip-rule:evenodd"
viewBox="0 0 1598 835.39"
 xmlns:xlink="http://www.w3.org/1999/xlink"
 xmlns:xodm="http://www.corel.com/coreldraw/odm/2003">
 <defs>
  <style type="text/css">
   <![CDATA[
    .fil1 {fill:#010101}
    .fil0 {fill:#B31D2D}
   ]]>
  </style>
 </defs>
 <g id="Camada_x0020_1">
  <metadata id="CorelCorpID_0Corel-Layer"/>
  <g id="_1313812740880">
   <path class="fil0" d="M104.68 197.77c18.59,49.4 158.44,134.04 160.21,191.27 1.59,51.76 -38.99,78.35 10.15,141.68 22.96,29.58 61.29,63.12 89,90.88 58.67,58.76 116.46,121.39 177.18,176.85 120.47,110.04 225.52,-60.92 225.55,-61.2 1.48,-14.49 -55.12,-70.23 -74.44,-75.99 -25.86,16.91 -51.4,67.7 -84.86,43.38 -25.22,-18.32 -232.81,-227 -233.15,-242.74 -0.36,-16.85 70.17,-88.11 87.61,-87.46 27.54,9.76 113.86,104.93 138.11,129.17l266.92 266.94c19.32,19.41 42.06,48.09 75.54,59.29 41.83,14.01 83.73,-0.73 109.46,-19.62l200.22 -198.71c44.96,-44.77 111.29,-91.67 91.05,-171.03 -19.69,-77.21 -14.64,-62.8 85.98,-163.32 19.23,-19.21 56.57,-49.47 64.1,-73.77l-91.24 -93.27c-25.69,14.32 -104.69,99.72 -128.51,123.79 -86.08,87.04 -97.4,-9.05 -187.93,36.85 -24.58,12.47 -104.6,97.9 -126.67,120.6 -23.03,23.66 -111.15,103.75 -120.79,126.73 8.38,19.94 53.06,65.16 73.33,72.19 23.99,-8.05 87.97,-80.24 110.27,-102.42 20.66,-20.55 90.76,-97.85 114.51,-106.57 23.33,6.67 79.15,62.69 87.57,86.22 0.96,20.57 -94.8,107.57 -113.35,125.94 -154.61,153.1 -105.86,154.26 -245.06,15.64 -55.04,-54.81 -320.99,-335.75 -367.46,-351.67 -53.11,-18.2 -66.1,6.24 -103.79,7.59 -63.62,2.29 -142.01,-136.37 -196.38,-160.29 -18.74,8.62 -84.62,74.35 -93.13,93.05z"/>
   <path class="fil1" d="M1420.03 91c6.66,22.67 25.89,34.74 42,50.77 56.45,56.15 45.58,57.14 96.41,6.12 53.43,-53.63 52.43,-41.87 -1.15,-95.77 -15.73,-15.83 -30.99,-35.16 -50.11,-45.17 -21.39,8.47 -74.71,65.47 -87.15,84.05z"/>
   <path class="fil1" d="M0 91c6.78,22.77 68.04,81.01 85.41,87.5 19.23,-10.34 82.91,-73.8 92.82,-93.12 -6.7,-15.54 -73.67,-86.11 -87.19,-85.37 -19.83,9.39 -81.54,71.06 -91.04,90.99z"/>
  </g>
 </g>
</svg>
