<?xml version="1.0" encoding="UTF-8"?>
<!DOCTYPE svg PUBLIC "-//W3C//DTD SVG 1.1//EN" "http://www.w3.org/Graphics/SVG/1.1/DTD/svg11.dtd">
<!-- Creator: CorelDRAW 2020 (64 Bit) -->
<svg xmlns="http://www.w3.org/2000/svg" xml:space="preserve" width="1270px" height="680px" version="1.1" style="shape-rendering:geometricPrecision; text-rendering:geometricPrecision; image-rendering:optimizeQuality; fill-rule:evenodd; clip-rule:evenodd"
viewBox="0 0 1270 679.67"
 xmlns:xlink="http://www.w3.org/1999/xlink"
 xmlns:xodm="http://www.corel.com/coreldraw/odm/2003">
 <defs>
  <style type="text/css">
   <![CDATA[
    .fil1 {fill:#1A1A1A}
    .fil0 {fill:#B31D2D}
    .fil2 {fill:#1A1A1A;fill-rule:nonzero}
    .fil3 {fill:#B31D2D;fill-rule:nonzero}
   ]]>
  </style>
 </defs>
 <g id="Camada_x0020_1">
  <metadata id="CorelCorpID_0Corel-Layer"/>
  <g id="_1313807614128">
   <g>
    <path class="fil0" d="M365.34 76.81c7.22,19.19 61.53,52.06 62.22,74.29 0.62,20.1 -15.15,30.43 3.94,55.02 8.92,11.49 23.81,24.52 34.57,35.3 22.78,22.82 45.23,47.15 68.81,68.69 46.79,42.74 87.59,-23.66 87.6,-23.77 0.58,-5.63 -21.41,-27.28 -28.91,-29.51 -10.04,6.56 -19.96,26.29 -32.96,16.84 -9.79,-7.11 -90.42,-88.16 -90.55,-94.27 -0.14,-6.55 27.25,-34.22 34.03,-33.97 10.69,3.79 44.22,40.75 53.64,50.16l103.66 103.68c7.51,7.54 16.34,18.68 29.34,23.03 16.25,5.44 32.52,-0.28 42.52,-7.62l77.76 -77.18c17.46,-17.39 43.22,-35.6 35.36,-66.42 -7.64,-29.99 -5.69,-24.4 33.4,-63.43 7.47,-7.47 21.97,-19.22 24.89,-28.66l-35.43 -36.22c-9.98,5.56 -40.67,38.73 -49.92,48.08 -33.43,33.8 -37.83,-3.52 -72.99,14.31 -9.54,4.84 -40.62,38.02 -49.19,46.84 -8.95,9.19 -43.17,40.29 -46.92,49.22 3.26,7.74 20.61,25.31 28.48,28.04 9.32,-3.13 34.17,-31.17 42.83,-39.78 8.03,-7.98 35.25,-38.01 44.48,-41.39 9.05,2.59 30.74,24.34 34.01,33.49 0.37,7.98 -36.82,41.77 -44.03,48.91 -60.04,59.46 -41.11,59.91 -95.17,6.07 -21.38,-21.28 -124.67,-130.4 -142.72,-136.58 -20.63,-7.07 -25.67,2.42 -40.31,2.95 -24.71,0.89 -55.16,-52.97 -76.27,-62.26 -7.28,3.35 -32.87,28.88 -36.17,36.14z"/>
    <path class="fil1" d="M876.2 35.34c2.59,8.81 10.06,13.5 16.31,19.72 21.93,21.81 17.7,22.2 37.45,2.38 20.75,-20.83 20.36,-16.26 -0.45,-37.2 -6.11,-6.15 -12.04,-13.65 -19.46,-17.54 -8.31,3.29 -29.02,25.43 -33.85,32.64z"/>
    <path class="fil1" d="M324.68 35.34c2.63,8.85 26.43,31.47 33.17,33.99 7.47,-4.02 32.2,-28.67 36.05,-36.17 -2.6,-6.03 -28.61,-33.44 -33.86,-33.16 -7.7,3.65 -31.67,27.6 -35.36,35.34z"/>
   </g>
   <g>
    <path class="fil2" d="M1028.44 613.03l-43.47 0 0 -164.71 40.3 0 0 23.38c6.93,-11.06 13.17,-18.3 18.72,-21.74 5.56,-3.44 11.85,-5.13 18.89,-5.13 9.94,0 19.51,2.75 28.72,8.19l-13.49 37.98c-7.35,-4.76 -14.18,-7.14 -20.47,-7.14 -6.14,0 -11.32,1.69 -15.55,5.03 -4.23,3.38 -7.56,9.41 -10,18.19 -2.43,8.78 -3.65,27.19 -3.65,55.17l0 50.78z"/>
    <path class="fil2" d="M711.72 560.98l43.48 7.3c-5.56,15.92 -14.39,28.03 -26.39,36.39 -12.07,8.3 -27.14,12.48 -45.17,12.48 -28.62,0 -49.83,-9.36 -63.53,-28.09 -10.84,-15.02 -16.29,-33.95 -16.29,-56.86 0,-27.29 7.14,-48.71 21.37,-64.15 14.23,-15.5 32.26,-23.22 54.05,-23.22 24.44,0 43.75,8.09 57.92,24.27 14.13,16.19 20.89,41 20.26,74.43l-108.85 0c0.31,12.9 3.81,22.95 10.52,30.14 6.67,7.2 15.02,10.79 24.97,10.79 6.82,0 12.53,-1.85 17.13,-5.55 4.66,-3.7 8.15,-9.68 10.53,-17.93zm2.54 -44.11c-0.32,-12.64 -3.54,-22.27 -9.73,-28.83 -6.19,-6.61 -13.7,-9.89 -22.59,-9.89 -9.46,0 -17.29,3.49 -23.48,10.42 -6.19,6.93 -9.2,16.4 -9.1,28.3l64.9 0z"/>
    <path class="fil2" d="M586.05 448.32l0 34.59 -29.83 0 0 66.7c0,13.54 0.26,21.42 0.84,23.64 0.59,2.22 1.86,4.07 3.92,5.55 2.01,1.43 4.44,2.17 7.35,2.17 4.07,0 9.89,-1.37 17.56,-4.18l3.65 33.86c-10.1,4.33 -21.53,6.5 -34.33,6.5 -7.82,0 -14.86,-1.32 -21.16,-3.97 -6.29,-2.64 -10.89,-6.08 -13.8,-10.26 -2.96,-4.23 -4.97,-9.89 -6.14,-17.08 -0.89,-5.08 -1.37,-15.34 -1.37,-30.84l0 -72.09 -19.99 0 0 -34.59 19.99 0 0 -32.69 43.48 -25.7 0 58.39 29.83 0z"/>
    <path class="fil2" d="M466.78 613.03l-43.48 0 0 -83.95c0,-17.77 -0.95,-29.25 -2.81,-34.43 -1.9,-5.23 -4.91,-9.25 -9.15,-12.16 -4.23,-2.91 -9.3,-4.34 -15.23,-4.34 -7.61,0 -14.44,2.06 -20.47,6.19 -6.08,4.12 -10.21,9.62 -12.43,16.39 -2.27,6.83 -3.38,19.42 -3.38,37.82l0 74.48 -43.48 0 0 -164.71 40.3 0 0 24.17c14.44,-18.46 32.59,-27.66 54.54,-27.66 9.62,0 18.46,1.74 26.44,5.18 8.04,3.49 14.07,7.88 18.14,13.22 4.13,5.4 6.99,11.48 8.57,18.3 1.64,6.83 2.44,16.56 2.44,29.25l0 102.25z"/>
    <polygon class="fil2" points="228.81,613.03 228.81,448.32 272.29,448.32 272.29,613.03 "/>
    <polygon class="fil3" points="228.81,426.1 228.81,385.8 272.29,385.8 272.29,426.1 "/>
    <polygon class="fil2" points="81.3,613.03 0,385.8 49.72,385.8 107.42,554 162.8,385.8 211.68,385.8 130.85,613.03 "/>
    <path class="fil2" d="M1100.22 528.66c0,-14.49 3.54,-28.51 10.68,-42.05 7.14,-13.59 17.24,-23.91 30.31,-31.05 13.06,-7.14 27.61,-10.73 43.74,-10.73 24.91,0 45.28,8.09 61.2,24.27 15.92,16.24 23.85,36.66 23.85,61.41 0,24.97 -8.04,45.65 -24.06,62.05 -16.08,16.39 -36.29,24.59 -60.67,24.59 -15.08,0 -29.46,-3.44 -43.16,-10.26 -13.65,-6.82 -24.07,-16.82 -31.21,-30.04 -7.14,-13.17 -10.68,-29.25 -10.68,-48.19zm44.74 2.33c0,16.34 3.86,28.88 11.59,37.55 7.77,8.73 17.29,13.07 28.66,13.07 11.32,0 20.85,-4.34 28.51,-13.07 7.67,-8.67 11.53,-21.31 11.53,-37.87 0,-16.13 -3.86,-28.56 -11.53,-37.24 -7.66,-8.72 -17.19,-13.06 -28.51,-13.06 -11.37,0 -20.89,4.34 -28.66,13.06 -7.73,8.68 -11.59,21.22 -11.59,37.56z"/>
    <path class="fil2" d="M788.89 623.5l49.82 6.03c0.85,5.87 2.76,9.89 5.72,12.11 4.18,3.12 10.68,4.71 19.57,4.71 11.37,0 19.88,-1.69 25.6,-5.13 3.81,-2.28 6.72,-5.93 8.67,-11.01 1.33,-3.59 2.01,-10.31 2.01,-19.99l0.21 -24.06c-13.11,17.93 -29.62,26.87 -49.5,26.87 -22.11,0 -39.67,-9.37 -52.58,-28.04 -10.15,-14.76 -15.23,-33.16 -15.23,-55.11 0,-27.61 6.66,-48.66 19.94,-63.21 13.28,-14.54 29.83,-21.84 49.61,-21.84 20.37,0 37.19,8.94 50.41,26.81l0 -23.32 40.62 0 0 147.67c0,19.41 -1.59,33.96 -4.81,43.53 -3.18,9.63 -7.67,17.14 -13.49,22.64 -5.76,5.45 -13.49,9.79 -23.17,12.85 -9.68,3.13 -21.89,4.66 -36.65,4.66 -27.93,0 -47.71,-4.81 -59.4,-14.39 -11.69,-9.62 -17.51,-21.74 -17.51,-36.49 0,-1.43 0.06,-3.23 0.16,-5.29zm39.04 -96.16c0,17.45 3.38,30.2 10.1,38.29 6.77,8.1 15.13,12.17 25.02,12.17 10.57,0 19.57,-4.18 26.87,-12.48 7.35,-8.31 11,-20.58 11,-36.87 0,-17.03 -3.49,-29.67 -10.53,-37.92 -6.98,-8.25 -15.86,-12.38 -26.6,-12.38 -10.42,0 -18.99,4.07 -25.76,12.16 -6.72,8.1 -10.1,20.42 -10.1,37.03z"/>
   </g>
  </g>
 </g>
</svg>
